<?xml version="1.0" encoding="utf-8"?>
<!-- Generator: Adobe Illustrator 27.3.1, SVG Export Plug-In . SVG Version: 6.00 Build 0)  -->
<svg version="1.1" id="Layer_1" xmlns="http://www.w3.org/2000/svg" xmlns:xlink="http://www.w3.org/1999/xlink" x="0px" y="0px"
	 viewBox="0 0 400 100" style="enable-background:new 0 0 400 100;" xml:space="preserve">
<style type="text/css">
	.st0{fill:none;stroke:#1FB7CC;stroke-width:4;stroke-miterlimit:10;}
	.st1{fill:#FFFFFF;}
</style>
<g>
	<path class="st0" d="M73.8,17.3L50.6,36h23.2V17.3v5.1V17.3z"/>
	<path class="st0" d="M50.6,36L27.4,17.3V36H50.6z"/>
	<path class="st0" d="M50.6,14.5v70.9"/>
	<path class="st0" d="M73.8,54.7L50.6,36v26.9l23.2,18.7V54.7z"/>
	<path class="st0" d="M27.4,54.7L50.6,36v26.9L27.4,81.6V54.7z"/>
	<path class="st0" d="M17.5,36v26.7h10v-8L50.6,36H17.5z"/>
	<path class="st0" d="M50.6,36l23.2,18.7v8h10V36H50.6z"/>
</g>
<g>
	<path class="st1" d="M151.9,37.8c1.4-2.7,3.5-4.8,6.1-6.3c2.6-1.5,5.7-2.2,9.2-2.2c3.5,0,6.4,0.7,8.8,2.2c2.4,1.4,4.3,3.4,5.5,5.7
		c1.2,2.4,1.8,5,1.8,7.8v3.9h-27.3c0.2,3.4,1.4,6.1,3.5,8.1c2.1,2,4.9,3,8.4,3c2.8,0,5-0.6,6.5-1.7c1.5-1.2,2.6-2.8,3.3-4.8h6.3
		c-0.8,3.2-2.5,6-5.1,8.3c-2.6,2.3-6.2,3.5-11,3.5c-3.6,0-6.8-0.7-9.5-2.2c-2.7-1.5-4.9-3.6-6.3-6.3c-1.5-2.7-2.2-5.9-2.2-9.6
		C149.7,43.8,150.4,40.6,151.9,37.8L151.9,37.8z M176.7,44.1c0-3-0.8-5.3-2.3-7c-1.5-1.7-3.9-2.5-7.2-2.5c-3.1,0-5.6,0.8-7.5,2.5
		c-2,1.6-3.1,4-3.6,7.1H176.7z"/>
	<path class="st1" d="M191.4,30.4v5.4c0,0.3,0.2,0.5,0.5,0.5c0.2,0,0.3,0,0.4-0.1c0.1-0.1,0.2-0.3,0.3-0.5c1.1-3.6,4-5.4,8.5-5.4
		h2.9v5.9h-3.8c-2.9,0-5.1,0.7-6.6,2.1c-1.4,1.4-2.2,3.7-2.2,6.9v19.4h-5.9V30.4L191.4,30.4L191.4,30.4z"/>
	<path class="st1" d="M238.7,57.3c-1.6,2.7-3.6,4.8-6.1,6.1c-2.5,1.4-5.1,2-8,2c-5.6,0-9.6-2.2-11.8-6.7c-0.2-0.3-0.4-0.5-0.7-0.5
		s-0.4,0.1-0.4,0.4v18.3h-5.9V30.4h5.9v5.8c0,0.3,0.1,0.4,0.4,0.4s0.5-0.2,0.7-0.5c2.3-4.5,6.2-6.7,11.8-6.7c2.8,0,5.5,0.7,8,2
		c2.5,1.4,4.5,3.4,6.1,6.1c1.6,2.7,2.3,6,2.3,9.9C241.1,51.3,240.3,54.6,238.7,57.3z M231.9,38c-2.2-2.3-5-3.4-8.6-3.4
		s-6.4,1.1-8.6,3.4c-2.2,2.3-3,5.4-3,9.4c0,4,0.8,7.2,3,9.4c2.2,2.3,5,3.4,8.6,3.4s6.4-1.1,8.6-3.4c2.2-2.3,3.3-5.4,3.3-9.4
		C235.1,43.4,234,40.3,231.9,38z"/>
	<path class="st1" d="M249.6,17.2v47.2h-5.9V17.2H249.6z"/>
	<path class="st1" d="M254.5,37.8c1.4-2.7,3.5-4.8,6.1-6.3c2.6-1.5,5.7-2.2,9.2-2.2s6.4,0.7,8.8,2.2c2.4,1.4,4.3,3.4,5.5,5.7
		c1.2,2.4,1.8,5,1.8,7.8v3.9h-27.3c0.2,3.4,1.4,6.1,3.5,8.1c2.1,2,4.9,3,8.4,3c2.8,0,5-0.6,6.5-1.7c1.5-1.2,2.6-2.8,3.3-4.8h6.3
		c-0.8,3.2-2.5,6-5.1,8.3c-2.6,2.3-6.2,3.5-11,3.5c-3.6,0-6.8-0.7-9.5-2.2c-2.7-1.5-4.9-3.6-6.3-6.3c-1.5-2.7-2.2-5.9-2.2-9.6
		C252.4,43.8,253.1,40.6,254.5,37.8L254.5,37.8z M279.3,44.1c0-3-0.8-5.3-2.3-7c-1.5-1.7-3.9-2.5-7.2-2.5c-3.1,0-5.6,0.8-7.5,2.5
		c-2,1.6-3.1,4-3.6,7.1H279.3z"/>
	<path class="st1" d="M283.3,63.2l13.6-16.7l-11.1-14.8v-1.3h6.5l9.3,12.7l10-12.7h6.6v1.4l-12.8,15.7l11.8,15.7v1.3h-6.4
		l-10.1-13.7l-10.8,13.7h-6.6L283.3,63.2L283.3,63.2z"/>
	<path class="st1" d="M326.7,19.3v7.4h-6.9v-7.4H326.7z M326.4,64.5h-5.9V30.4h5.9V64.5z"/>
	<path class="st1" d="M328.3,30.4h6.4v-9.2h5.9v9.2h6.8l1.7,5h-8.4v16.3c0,2.2-0.1,3.9-0.2,5c-0.1,1.1-0.2,1.7-0.2,1.9
		c0,0.3,0.1,0.5,0.3,0.7c0.2,0.2,0.4,0.3,0.7,0.3c0.2,0,0.9-0.1,1.9-0.2c1.1-0.1,2.7-0.2,5-0.2h2.3v5.2h-4.6c-3.8,0-6.6-0.9-8.4-2.8
		c-1.8-1.8-2.8-4.6-2.8-8.4v-18h-6.4L328.3,30.4L328.3,30.4z"/>
	<path class="st1" d="M349.2,30.4h6L365,59c0.1,0.3,0.3,0.8,1,0.8c0.7,0,0.9-0.5,1-0.8l9.8-28.6h5.6v1.3l-12.3,36.8
		c-1.1,3.2-2.5,5.3-4.4,6.6c-1.9,1.2-4.1,1.9-7.8,1.9h-6.3v-5.2h4.8c1.5,0,2.8,0.1,3.7,0.2c1,0.1,1.6,0.2,1.8,0.2
		c0.7,0,1.2-0.3,1.5-1l1.8-5c0.2-0.5,0.2-0.9,0.1-1.2c-0.1-0.2-0.2-0.3-0.3-0.3c-0.1,0-0.3-0.1-0.6-0.1h-4L349.2,30.4L349.2,30.4z"
		/>
	<path class="st1" d="M145.9,57.4c-1.6,2.7-3.6,4.8-6.1,6.1c-2.5,1.4-5.1,2-8,2c-5.6,0-9.6-2.2-11.8-6.7c-0.2-0.3-0.4-0.5-0.7-0.5
		c-0.3,0-0.4,0.1-0.4,0.4V77h-5.9V30.4h5.9v5.8c0,0.3,0.1,0.4,0.4,0.4c0.3,0,0.5-0.2,0.7-0.5c2.3-4.5,6.2-6.7,11.8-6.7
		c2.8,0,5.5,0.7,8,2c2.5,1.4,4.5,3.4,6.1,6.1c1.6,2.7,2.3,6,2.3,9.9C148.3,51.3,147.5,54.6,145.9,57.4z M139.1,38.1
		c-2.2-2.3-5-3.4-8.6-3.4s-6.4,1.1-8.6,3.4c-2.2,2.3-3,5.4-3,9.4s0.8,7.2,3,9.4c2.2,2.3,5,3.4,8.6,3.4s6.4-1.1,8.6-3.4
		c2.2-2.3,3.3-5.4,3.3-9.4C142.3,43.5,141.2,40.3,139.1,38.1z"/>
</g>
</svg>
